<svg width="829" height="485" viewBox="0 0 829 485" fill="none" xmlns="http://www.w3.org/2000/svg">
<g filter="url(#filter0_ii_203_40)">
<path d="M404.402 4.87764C410.222 1.82341 417.171 1.82341 422.99 4.87765L478.313 33.9119L531.73 64.3696C537.854 67.8609 541.687 74.3177 541.82 81.3651L542.931 140L541.82 198.635C541.687 205.682 537.854 212.139 531.73 215.63L478.313 246.088L422.99 275.122C417.171 278.177 410.222 278.177 404.402 275.122L349.079 246.088L295.662 215.63C289.539 212.139 285.706 205.682 285.572 198.635L284.462 140L285.572 81.3651C285.706 74.3177 289.539 67.8609 295.662 64.3696L349.079 33.9119L404.402 4.87764Z" fill="url(#paint0_linear_203_40)"/>
</g>
<path d="M0.163574 388V335.485H32.8662V347.863H15.9839V355.517H31.8408V367.895H15.9839V375.622H34.0747V388H0.163574ZM70.4395 388L63.9209 373.608C63.5059 372.705 63.2251 371.826 63.0786 370.971C62.9565 370.092 62.8589 369.372 62.7856 368.811H62.6392C62.4927 369.396 62.3218 370.166 62.1265 371.118C61.9312 372.07 61.6504 372.998 61.2842 373.901L55.2051 388H36.3818L52.1289 361.816L37.8101 335.485H56.9263L62.0166 349.365C62.4805 350.659 62.9077 352.368 63.2983 354.492H63.4448C63.8354 352.099 64.2871 350.366 64.7998 349.292L70.7324 335.485H88.3472L73.5889 361.523L89.043 388H70.4395ZM133.281 386.572C128.936 388.134 123.918 388.916 118.23 388.916C112.639 388.916 107.817 387.854 103.765 385.729C99.7119 383.581 96.6113 380.542 94.4629 376.611C92.3389 372.656 91.2769 368.103 91.2769 362.951C91.2769 357.409 92.4731 352.478 94.8657 348.156C97.2583 343.835 100.64 340.502 105.01 338.159C109.38 335.791 114.409 334.606 120.098 334.606C124.639 334.606 129.033 335.156 133.281 336.254V350.866C131.816 349.987 130.071 349.304 128.044 348.815C126.018 348.327 123.967 348.083 121.892 348.083C117.595 348.083 114.202 349.316 111.711 351.782C109.246 354.248 108.013 357.592 108.013 361.816C108.013 366.015 109.246 369.335 111.711 371.777C114.202 374.194 117.522 375.402 121.672 375.402C125.505 375.402 129.375 374.426 133.281 372.473V386.572ZM141.448 388V335.485H174.15V347.863H157.268V355.517H173.125V367.895H157.268V375.622H175.359V388H141.448ZM182.83 388V335.485H198.65V375.622H216.741V388H182.83ZM259.88 372.106C259.88 375.598 258.94 378.637 257.061 381.225C255.205 383.813 252.593 385.742 249.224 387.011C245.854 388.281 241.802 388.916 237.065 388.916C231.572 388.916 226.543 387.988 221.978 386.132V371.74C224.175 373.352 226.604 374.658 229.265 375.659C231.926 376.635 234.404 377.124 236.699 377.124C238.433 377.124 239.775 376.818 240.728 376.208C241.68 375.573 242.156 374.658 242.156 373.461C242.156 372.607 241.912 371.862 241.423 371.228C240.959 370.568 240.239 369.958 239.263 369.396C238.311 368.835 236.528 368.066 233.916 367.089C225.469 363.842 221.245 358.593 221.245 351.342C221.245 346.264 223.174 342.211 227.031 339.184C230.889 336.132 236.064 334.606 242.559 334.606C244.39 334.606 246.074 334.68 247.612 334.826C249.15 334.973 250.542 335.156 251.787 335.375C253.057 335.595 254.827 336.01 257.097 336.621V349.987C252.678 347.57 248.333 346.362 244.06 346.362C242.302 346.362 240.886 346.691 239.812 347.351C238.738 348.01 238.201 348.913 238.201 350.061C238.201 351.159 238.628 352.075 239.482 352.807C240.361 353.515 242.18 354.443 244.939 355.59C250.383 357.788 254.229 360.192 256.475 362.805C258.745 365.417 259.88 368.518 259.88 372.106ZM299.248 388L296.941 378.332H281.267L278.777 388H261.675L279.766 335.485H299.395L316.423 388H299.248ZM289.287 346.911H288.921C288.872 347.497 288.701 348.461 288.408 349.804C288.115 351.147 286.638 356.909 283.977 367.089H294.011L290.349 352.807C289.836 350.708 289.482 348.742 289.287 346.911ZM382.524 386.572C378.179 388.134 373.162 388.916 367.473 388.916C361.882 388.916 357.061 387.854 353.008 385.729C348.955 383.581 345.854 380.542 343.706 376.611C341.582 372.656 340.52 368.103 340.52 362.951C340.52 357.409 341.716 352.478 344.109 348.156C346.501 343.835 349.883 340.502 354.253 338.159C358.623 335.791 363.652 334.606 369.341 334.606C373.882 334.606 378.276 335.156 382.524 336.254V350.866C381.06 349.987 379.314 349.304 377.288 348.815C375.261 348.327 373.21 348.083 371.135 348.083C366.838 348.083 363.445 349.316 360.955 351.782C358.489 354.248 357.256 357.592 357.256 361.816C357.256 366.015 358.489 369.335 360.955 371.777C363.445 374.194 366.765 375.402 370.916 375.402C374.749 375.402 378.618 374.426 382.524 372.473V386.572ZM440.642 361.596C440.642 366.87 439.507 371.594 437.236 375.769C434.966 379.919 431.792 383.154 427.715 385.473C423.638 387.768 419.072 388.916 414.019 388.916C409.087 388.916 404.595 387.805 400.542 385.583C396.514 383.337 393.376 380.2 391.13 376.171C388.884 372.119 387.761 367.541 387.761 362.438C387.761 357.092 388.896 352.282 391.167 348.01C393.438 343.737 396.624 340.441 400.725 338.122C404.827 335.778 409.49 334.606 414.714 334.606C419.744 334.606 424.236 335.729 428.191 337.976C432.17 340.197 435.234 343.383 437.383 347.534C439.556 351.66 440.642 356.347 440.642 361.596ZM423.87 362.036C423.87 357.714 423.04 354.309 421.379 351.818C419.719 349.328 417.449 348.083 414.568 348.083C411.418 348.083 408.965 349.279 407.207 351.672C405.449 354.064 404.57 357.446 404.57 361.816C404.57 366.088 405.437 369.421 407.17 371.813C408.928 374.206 411.309 375.402 414.312 375.402C416.143 375.402 417.791 374.865 419.255 373.791C420.72 372.717 421.855 371.179 422.661 369.177C423.467 367.175 423.87 364.794 423.87 362.036ZM484.807 388L466.277 362.658C464.812 360.656 463.616 358.85 462.688 357.238H462.542C462.688 359.826 462.761 362.731 462.761 365.954V388H448.113V335.485H463.054L480.815 359.582C481.035 359.899 481.304 360.278 481.621 360.717C481.938 361.157 482.256 361.608 482.573 362.072C482.891 362.536 483.184 362.988 483.452 363.427C483.745 363.867 483.965 364.257 484.111 364.599H484.258C484.111 363.525 484.038 361.669 484.038 359.033V335.485H498.687V388H484.807ZM545.525 372.106C545.525 375.598 544.585 378.637 542.705 381.225C540.85 383.813 538.237 385.742 534.868 387.011C531.499 388.281 527.446 388.916 522.71 388.916C517.217 388.916 512.188 387.988 507.622 386.132V371.74C509.819 373.352 512.249 374.658 514.91 375.659C517.571 376.635 520.049 377.124 522.344 377.124C524.077 377.124 525.42 376.818 526.372 376.208C527.324 375.573 527.8 374.658 527.8 373.461C527.8 372.607 527.556 371.862 527.068 371.228C526.604 370.568 525.884 369.958 524.907 369.396C523.955 368.835 522.173 368.066 519.561 367.089C511.113 363.842 506.89 358.593 506.89 351.342C506.89 346.264 508.818 342.211 512.676 339.184C516.533 336.132 521.709 334.606 528.203 334.606C530.034 334.606 531.719 334.68 533.257 334.826C534.795 334.973 536.187 335.156 537.432 335.375C538.701 335.595 540.471 336.01 542.742 336.621V349.987C538.323 347.57 533.977 346.362 529.705 346.362C527.947 346.362 526.531 346.691 525.457 347.351C524.382 348.01 523.845 348.913 523.845 350.061C523.845 351.159 524.272 352.075 525.127 352.807C526.006 353.515 527.825 354.443 530.583 355.59C536.028 357.788 539.873 360.192 542.119 362.805C544.39 365.417 545.525 368.518 545.525 372.106ZM597.747 364.013C597.747 372.436 595.818 378.698 591.96 382.8C588.127 386.877 582.207 388.916 574.199 388.916C566.729 388.916 561.052 386.877 557.17 382.8C553.313 378.698 551.384 372.534 551.384 364.306V335.485H567.278V364.892C567.278 368.261 567.9 370.861 569.146 372.692C570.415 374.499 572.222 375.402 574.565 375.402C576.934 375.402 578.728 374.548 579.949 372.839C581.194 371.13 581.816 368.603 581.816 365.258V335.485H597.747V364.013ZM607.488 388V335.485H623.308V375.622H641.399V388H607.488ZM674.614 347.863V388H658.721V347.863H644.036V335.485H689.482V347.863H674.614ZM695.818 388V335.485H711.638V388H695.818ZM758.66 388L740.129 362.658C738.665 360.656 737.468 358.85 736.541 357.238H736.394C736.541 359.826 736.614 362.731 736.614 365.954V388H721.965V335.485H736.907L754.668 359.582C754.888 359.899 755.156 360.278 755.474 360.717C755.791 361.157 756.108 361.608 756.426 362.072C756.743 362.536 757.036 362.988 757.305 363.427C757.598 363.867 757.817 364.257 757.964 364.599H758.11C757.964 363.525 757.891 361.669 757.891 359.033V335.485H772.539V388H758.66ZM828.899 384.558C826.921 385.681 823.967 386.694 820.037 387.597C816.106 388.476 812.358 388.916 808.794 388.916C799.59 388.916 792.485 386.621 787.48 382.031C782.476 377.417 779.973 370.959 779.973 362.658C779.973 357.092 781.23 352.148 783.745 347.827C786.284 343.505 789.849 340.222 794.438 337.976C799.028 335.729 804.436 334.606 810.662 334.606C815.227 334.606 820.098 335.253 825.273 336.547V350.354C822.856 349.255 820.537 348.498 818.315 348.083C816.094 347.644 813.665 347.424 811.028 347.424C806.682 347.424 803.215 348.73 800.627 351.342C798.064 353.955 796.782 357.543 796.782 362.109C796.782 366.479 797.856 369.897 800.005 372.363C802.178 374.829 805.205 376.062 809.087 376.062C810.894 376.062 812.224 375.964 813.079 375.769V368.261H803.008V356.286H828.899V384.558Z" fill="#068D8E"/>
<path d="M345.175 449.545V458.085H357.46V461.095H345.175V471H341.675V446.5H358.965V449.545H345.175ZM382.197 467.955V471H361.722V468.62L377.122 449.545H361.967V446.5H381.742V448.88L366.412 467.955H382.197ZM394.614 459.94H404.029V462.845H394.614V459.94ZM419.092 446.5H422.592V467.955H435.857V471H419.092V446.5ZM439.873 446.5H443.373V467.955H456.638V471H439.873V446.5ZM471.165 471.28C468.715 471.28 466.498 470.743 464.515 469.67C462.555 468.573 461.015 467.08 459.895 465.19C458.775 463.277 458.215 461.13 458.215 458.75C458.215 456.37 458.775 454.235 459.895 452.345C461.015 450.432 462.567 448.938 464.55 447.865C466.533 446.768 468.75 446.22 471.2 446.22C473.113 446.22 474.863 446.547 476.45 447.2C478.037 447.83 479.39 448.775 480.51 450.035L478.235 452.24C476.392 450.303 474.093 449.335 471.34 449.335C469.52 449.335 467.875 449.743 466.405 450.56C464.935 451.377 463.78 452.508 462.94 453.955C462.123 455.378 461.715 456.977 461.715 458.75C461.715 460.523 462.123 462.133 462.94 463.58C463.78 465.003 464.935 466.123 466.405 466.94C467.875 467.757 469.52 468.165 471.34 468.165C474.07 468.165 476.368 467.185 478.235 465.225L480.51 467.43C479.39 468.69 478.025 469.647 476.415 470.3C474.828 470.953 473.078 471.28 471.165 471.28Z" fill="#6D6D6D"/>
<g filter="url(#filter1_ii_203_40)">
<path d="M352.2 100H402V114.64H368.64V134.2H399V148.84H368.64V169.36H402.6V184H352.2V100ZM471.775 180.52C469.215 182.36 465.935 183.68 461.935 184.48C458.015 185.28 453.975 185.68 449.815 185.68C444.775 185.68 439.975 184.92 435.415 183.4C430.935 181.8 426.975 179.28 423.535 175.84C420.095 172.32 417.335 167.8 415.255 162.28C413.255 156.68 412.255 149.92 412.255 142C412.255 133.76 413.375 126.88 415.615 121.36C417.935 115.76 420.895 111.28 424.495 107.92C428.175 104.48 432.255 102.04 436.735 100.6C441.215 99.08 445.695 98.32 450.175 98.32C454.975 98.32 459.015 98.64 462.295 99.28C465.655 99.92 468.415 100.68 470.575 101.56L467.335 115.48C465.495 114.6 463.295 113.96 460.735 113.56C458.255 113.16 455.215 112.96 451.615 112.96C444.975 112.96 439.615 115.32 435.535 120.04C431.535 124.76 429.535 132.08 429.535 142C429.535 146.32 430.015 150.28 430.975 153.88C431.935 157.4 433.375 160.44 435.295 163C437.295 165.48 439.735 167.44 442.615 168.88C445.575 170.24 448.975 170.92 452.815 170.92C456.415 170.92 459.455 170.56 461.935 169.84C464.415 169.12 466.575 168.2 468.415 167.08L471.775 180.52Z" fill="white"/>
</g>
<defs>
<filter id="filter0_ii_203_40" x="284.463" y="-4.41302" width="258.467" height="289.826" filterUnits="userSpaceOnUse" color-interpolation-filters="sRGB">
<feFlood flood-opacity="0" result="BackgroundImageFix"/>
<feBlend mode="normal" in="SourceGraphic" in2="BackgroundImageFix" result="shape"/>
<feColorMatrix in="SourceAlpha" type="matrix" values="0 0 0 0 0 0 0 0 0 0 0 0 0 0 0 0 0 0 127 0" result="hardAlpha"/>
<feOffset dy="8"/>
<feGaussianBlur stdDeviation="5.5"/>
<feComposite in2="hardAlpha" operator="arithmetic" k2="-1" k3="1"/>
<feColorMatrix type="matrix" values="0 0 0 0 0.714167 0 0 0 0 0.936816 0 0 0 0 1 0 0 0 1 0"/>
<feBlend mode="normal" in2="shape" result="effect1_innerShadow_203_40"/>
<feColorMatrix in="SourceAlpha" type="matrix" values="0 0 0 0 0 0 0 0 0 0 0 0 0 0 0 0 0 0 127 0" result="hardAlpha"/>
<feOffset dy="-7"/>
<feGaussianBlur stdDeviation="6.5"/>
<feComposite in2="hardAlpha" operator="arithmetic" k2="-1" k3="1"/>
<feColorMatrix type="matrix" values="0 0 0 0 0 0 0 0 0 0.506264 0 0 0 0 0.516667 0 0 0 1 0"/>
<feBlend mode="normal" in2="effect1_innerShadow_203_40" result="effect2_innerShadow_203_40"/>
</filter>
<filter id="filter1_ii_203_40" x="352.199" y="96.32" width="119.576" height="93.36" filterUnits="userSpaceOnUse" color-interpolation-filters="sRGB">
<feFlood flood-opacity="0" result="BackgroundImageFix"/>
<feBlend mode="normal" in="SourceGraphic" in2="BackgroundImageFix" result="shape"/>
<feColorMatrix in="SourceAlpha" type="matrix" values="0 0 0 0 0 0 0 0 0 0 0 0 0 0 0 0 0 0 127 0" result="hardAlpha"/>
<feOffset dy="-2"/>
<feGaussianBlur stdDeviation="2"/>
<feComposite in2="hardAlpha" operator="arithmetic" k2="-1" k3="1"/>
<feColorMatrix type="matrix" values="0 0 0 0 0.054902 0 0 0 0 0.227451 0 0 0 0 0.360784 0 0 0 0.28 0"/>
<feBlend mode="normal" in2="shape" result="effect1_innerShadow_203_40"/>
<feColorMatrix in="SourceAlpha" type="matrix" values="0 0 0 0 0 0 0 0 0 0 0 0 0 0 0 0 0 0 127 0" result="hardAlpha"/>
<feOffset dy="4"/>
<feGaussianBlur stdDeviation="2"/>
<feComposite in2="hardAlpha" operator="arithmetic" k2="-1" k3="1"/>
<feColorMatrix type="matrix" values="0 0 0 0 1 0 0 0 0 1 0 0 0 0 1 0 0 0 0.06 0"/>
<feBlend mode="normal" in2="effect1_innerShadow_203_40" result="effect2_innerShadow_203_40"/>
</filter>
<linearGradient id="paint0_linear_203_40" x1="413.696" y1="0" x2="413.696" y2="280" gradientUnits="userSpaceOnUse">
<stop stop-color="#8CD0E6"/>
<stop offset="1" stop-color="#0AA2A3"/>
</linearGradient>
</defs>
</svg>
