<svg width="51" height="50" viewBox="0 0 51 50" fill="none" xmlns="http://www.w3.org/2000/svg">
<g clip-path="url(#clip0_19_56)">
<path d="M26.175 14.6271L26.4958 15.3458C26.9896 15.2604 27.5792 15.2312 28.2604 15.2937L28.5375 16.4958C28.0021 16.4292 27.4333 16.3667 26.9312 16.4708L26.7396 16.5187C25.7729 16.775 26.0812 17.6958 26.9437 17.9187C28.3646 18.2479 30.0562 18.3521 30.725 19.8396C31.2625 21.0437 30.6396 21.8667 29.5979 22.2625L29.9187 22.9833L29.2417 23.125L28.9354 22.4396C28.2312 22.5667 27.425 22.55 26.6854 22.3542L26.4771 21.1375C27.0896 21.2333 27.8479 21.3187 28.4312 21.2L28.8188 21.075C29.5125 20.7312 29.3 19.8625 28.2687 19.6562C27.5042 19.4833 25.4729 19.6125 24.7167 17.925C24.2896 16.9708 24.6063 15.975 25.8312 15.5208L25.4958 14.7688L26.175 14.6271ZM34.1333 17.9896C32.6625 14.5563 28.5479 12.2583 24.9479 12.8583C21.3479 13.4583 19.6208 16.7271 21.0938 20.1625C22.6479 23.7854 27.1104 26.1062 30.7833 25.1917C34.0375 24.3833 35.5333 21.2604 34.1333 17.9896ZM42.5708 6.25L50.4167 23.4021C39.0979 32.2 24.0542 23.3229 13.0187 32.6958L5.17292 15.5437C15.4729 5.5875 29.7 14.6062 42.5708 6.25ZM50.5 31.2792C36.2146 39.4854 24.6687 28.3125 9.875 43.75L0.5 22.9917L3.42083 19.9458L11.3521 37.4479L11.3479 37.4646C26.8583 25.8146 34.6708 35.0167 49.075 27.9625C49.6875 29.3104 50.2521 30.7333 50.5 31.2792Z" fill="#CDE8E8"/>
</g>
<defs>
<clipPath id="clip0_19_56">
<rect width="50" height="50" fill="white" transform="translate(0.5)"/>
</clipPath>
</defs>
</svg>
