<svg width="50" height="50" viewBox="0 0 50 50" fill="none" xmlns="http://www.w3.org/2000/svg">
<g clip-path="url(#clip0_19_50)">
<path d="M48.9583 14.5833C49.5333 14.5833 50 15.05 50 15.625V16.6896C50 18.3417 48.0708 18.75 46.6333 18.75L44.3708 14.5833H48.9583ZM45.9562 21.8875C47.2875 24.3583 47.9271 26.5792 47.9271 29.525C47.9271 32.3792 47.1 34.8021 45.8333 37.8187V41.6667C45.8333 42.8167 44.9 43.75 43.75 43.75H40.625C39.475 43.75 38.5417 42.8167 38.5417 41.6667V39.5833H11.4583V41.6667C11.4583 42.8167 10.525 43.75 9.375 43.75H6.25C5.1 43.75 4.16667 42.8167 4.16667 41.6667V37.8187C2.9 34.8021 2.07292 32.3792 2.07292 29.525C2.07292 26.5792 2.7125 24.3583 4.04375 21.8875C5.77083 18.6854 7.9 14.6938 10.1479 10.9458C11.8729 8.06667 12.7771 7.38958 14.8938 7.01042C18.0854 6.4375 20.9729 6.25 25 6.25C29.0271 6.25 31.9146 6.4375 35.1062 7.01042C37.2229 7.38958 38.1271 8.06667 39.8521 10.9458C42.1 14.6938 44.2292 18.6854 45.9562 21.8875ZM12.5 28.125C12.5 26.4 11.1 25 9.375 25C7.65 25 6.25 26.4 6.25 28.125C6.25 29.85 7.65 31.25 9.375 31.25C11.1 31.25 12.5 29.85 12.5 28.125ZM33.3333 30.2083C33.3333 29.6333 32.8667 29.1667 32.2917 29.1667H17.7083C17.1333 29.1667 16.6667 29.6333 16.6667 30.2083C16.6667 30.7833 17.1333 31.25 17.7083 31.25H32.2917C32.8667 31.25 33.3333 30.7833 33.3333 30.2083ZM39.4604 18.6937C39.4604 18.6937 37.9187 14.8896 36.0625 12.1479C35.6417 11.5271 34.9896 11.1021 34.2521 10.9687C31.1042 10.4021 28.3458 10.2208 25 10.2208C21.6542 10.2208 18.8958 10.4021 15.7479 10.9687C15.0104 11.1 14.3583 11.525 13.9375 12.1479C12.0813 14.8875 10.5396 18.6937 10.5396 18.6937C13.9562 19.3458 19.5167 19.7292 25 19.7292C30.4833 19.7292 36.0437 19.3458 39.4604 18.6937ZM43.75 28.125C43.75 26.4 42.35 25 40.625 25C38.9 25 37.5 26.4 37.5 28.125C37.5 29.85 38.9 31.25 40.625 31.25C42.35 31.25 43.75 29.85 43.75 28.125ZM5.62917 14.5833H1.04167C0.466667 14.5833 0 15.05 0 15.625V16.6896C0 18.3417 1.92917 18.75 3.36667 18.75L5.62917 14.5833Z" fill="#CDE8E8"/>
</g>
<defs>
<clipPath id="clip0_19_50">
<rect width="50" height="50" fill="white"/>
</clipPath>
</defs>
</svg>
