<svg width="51" height="50" viewBox="0 0 51 50" fill="none" xmlns="http://www.w3.org/2000/svg">
<g clip-path="url(#clip0_19_54)">
<path fill-rule="evenodd" clip-rule="evenodd" d="M39.8854 29.1666C35.6583 34.1687 29.7562 39.5937 23.4167 45.8332C11.1396 33.7499 0.5 24.7207 0.5 15.8937C0.5 3.07283 17.4042 0.0874133 23.4167 10.3187C29.3854 0.162413 46.3333 3.02908 46.3333 15.8937C46.3333 17.527 45.9688 19.1687 45.2979 20.8332H32.2188C31.6917 20.8332 31.2062 21.1187 30.9479 21.5791L29.2542 24.5999L24.525 15.3562C24.2917 14.8999 23.8354 14.5978 23.325 14.5645C22.8125 14.5312 22.3208 14.7666 22.0292 15.1874L18.1125 20.8332H15.5562C14.8354 19.5874 13.4896 18.7499 11.9479 18.7499C9.65 18.7499 7.78125 20.6166 7.78125 22.9166C7.78125 25.2166 9.65 27.0832 11.9479 27.0832C13.4896 27.0832 14.8354 26.2457 15.5562 24.9999H19.6312C20.1062 24.9999 20.55 24.7687 20.825 24.3812L22.8854 21.452L27.5854 30.9499C27.8229 31.427 28.3 31.7395 28.8312 31.7603C29.3646 31.7832 29.8646 31.5145 30.1417 31.0582L33.8063 24.9999H50.5V29.1666H39.8854Z" fill="#CDE8E8"/>
</g>
<defs>
<clipPath id="clip0_19_54">
<rect width="50" height="50" fill="white" transform="translate(0.5)"/>
</clipPath>
</defs>
</svg>
