<svg width="50" height="50" viewBox="0 0 50 50" fill="none" xmlns="http://www.w3.org/2000/svg">
<path fill-rule="evenodd" clip-rule="evenodd" d="M2.08337 45.8333H6.25004V0H43.75V45.8333H47.9167V50H2.08337V45.8333ZM16.6667 39.5833V47.9167H22.9167V39.5833H16.6667ZM27.0834 39.5833V47.9167H33.3334V39.5833H27.0834ZM14.5834 29.1667H10.4167V33.3333H14.5834V29.1667ZM31.25 29.1667H27.0834V33.3333H31.25V29.1667ZM22.9167 29.1667H18.75V33.3333H22.9167V29.1667ZM39.5834 29.1667H35.4167V33.3333H39.5834V29.1667ZM14.5834 20.8333H10.4167V25H14.5834V20.8333ZM31.25 20.8333H27.0834V25H31.25V20.8333ZM22.9167 20.8333H18.75V25H22.9167V20.8333ZM39.5834 20.8333H35.4167V25H39.5834V20.8333ZM14.5834 12.5H10.4167V16.6667H14.5834V12.5ZM31.25 12.5H27.0834V16.6667H31.25V12.5ZM22.9167 12.5H18.75V16.6667H22.9167V12.5ZM39.5834 12.5H35.4167V16.6667H39.5834V12.5ZM14.5834 4.16667H10.4167V8.33333H14.5834V4.16667ZM31.25 4.16667H27.0834V8.33333H31.25V4.16667ZM22.9167 4.16667H18.75V8.33333H22.9167V4.16667ZM39.5834 4.16667H35.4167V8.33333H39.5834V4.16667Z" fill="#CDE8E8"/>
</svg>
