<svg width="50" height="50" viewBox="0 0 50 50" fill="none" xmlns="http://www.w3.org/2000/svg">
<g clip-path="url(#clip0_19_58)">
<path fill-rule="evenodd" clip-rule="evenodd" d="M14.5834 34.35L17.7625 32.8438C21.4959 31.1563 23.7021 32.1271 26.8229 33.3271C30.3979 34.7042 31.75 35.1667 33.2334 35.7521C35.8959 36.8063 34.6667 40.2875 32 39.5813C30.3792 39.1521 26.1417 37.925 24.9584 37.6417C23.625 37.3209 23.0209 38.8959 24.2854 39.3459C26.5896 40.1646 29.8334 40.9917 31.5646 41.4438C33.2959 41.8979 34.2625 41.1417 35.4834 40.1709C37.3709 38.6709 41.6667 34.1104 41.6667 34.1104C43.4209 32.4459 45.8146 33.8292 45.8146 35.6105C45.8146 36.0896 45.6417 36.5979 45.2396 37.0834C40.3896 42.9021 38.8646 44.6709 35.7229 47.9709C34.425 49.3354 32.9271 50 31.1313 50C30.2104 50 29.2104 49.825 28.125 49.4792C24.3229 48.2688 19.4334 46.7438 14.5834 46.1459V34.35ZM12.5 47.9709H4.16669V31.3042H12.5V47.9709ZM14.5834 31.5771V28.0063C14.5709 24.7625 14.7125 22.9084 18.4459 22.0459C22.5354 21.1021 27.4354 20.2563 25.4959 16.6771C19.7438 6.06878 23.8563 0.0541992 30.0313 0.0541992C36.0875 0.0541992 40.3021 5.84587 34.5667 16.6771C32.6834 20.2354 37.4375 21.0813 41.6167 22.0459C45.3646 22.9104 45.4896 24.7771 45.4771 28.0438C45.4771 28.3146 45.4542 30.4834 45.4771 31.5125C44.4709 30.8688 42.4729 30.3625 40.9209 31.7334C39.8063 32.7167 39.7375 32.7834 37.2063 35.1271C33.5604 33.3959 27.9229 31.2042 24.2604 29.9646C22.3938 29.3313 20.0104 29.3229 18.0896 30.1209L14.5834 31.5771Z" fill="#CDE8E8"/>
</g>
<defs>
<clipPath id="clip0_19_58">
<rect width="50" height="50" fill="white"/>
</clipPath>
</defs>
</svg>
