<svg width="24" height="24" viewBox="0 0 24 24" fill="none" xmlns="http://www.w3.org/2000/svg">
<path d="M7.28924 4.90761C10.4239 4.63513 13.5763 4.63512 16.7109 4.90761L18.2211 5.03889C19.2265 5.12629 20.0876 5.72596 20.5337 6.58374C20.5908 6.69347 20.548 6.82633 20.4428 6.89144L14.1769 10.7704C12.833 11.6023 11.1385 11.6197 9.77778 10.8157L3.46995 7.08833C3.36804 7.02811 3.32126 6.90415 3.36719 6.79505C3.77535 5.82548 4.69298 5.1333 5.77901 5.0389L7.28924 4.90761Z" fill="#068D8E"/>
<path d="M3.36206 8.76688C3.20609 8.67472 3.00709 8.7739 2.98891 8.95414C2.73518 11.4698 2.79659 14.0092 3.17314 16.5133C3.37166 17.8334 4.44907 18.8455 5.77901 18.9611L7.28924 19.0924C10.4239 19.3649 13.5763 19.3649 16.7109 19.0924L18.2211 18.9611C19.5511 18.8455 20.6285 17.8334 20.827 16.5133C21.2145 13.9363 21.2683 11.3217 20.9882 8.73428C20.9686 8.55276 20.7662 8.45541 20.611 8.55151L14.9664 12.0458C13.1482 13.1713 10.8557 13.1949 9.01468 12.1071L3.36206 8.76688Z" fill="#068D8E"/>
</svg>
